# xmcd CD database file
#
# Track frame offsets:
#	150
#	11071
#	23903
#	39311
#	62879
#	77127
#	96599
#	113535
#	131783
#	145855
#	164759
#	180919
#	192175
#	206023
#	229471
#
# Disc length: 3342 seconds
#
# Revision: 0
# Processed by: cddbd v1.5.2PL0 Copyright (c) Steve Scherf et al.
# Submitted via: CDex 1.51
#
DISCID=d30d0c0f
DTITLE=Gurf Morlix - Blaze Foley's 113th Wet Dream
DYEAR=2011
DGENRE=Country
TTITLE0=Baby Can I Crawl Back To You 
TTITLE1=Big Cheeseburgers And Good French Fries
TTITLE2=Clay Pigeons 
TTITLE3=If I Could Only Fly 
TTITLE4=No Goodwill Stores In Waikiki
TTITLE5=For Anything Less 
TTITLE6=Oh Darlin'
TTITLE7=Picture Cards
TTITLE8=Down Here Where I Am 
TTITLE9=Oooh Love 
TTITLE10=Small Town Hero 
TTITLE11=Rainbows And Ridges 
TTITLE12=Blaze Foley's 113th Wet Dream
TTITLE13=In The Misty Garden_I Shoulda Been Home With You
TTITLE14=Cold Cold World
EXTD=YEAR: 2011
EXTT0=
EXTT1=
EXTT2=
EXTT3=
EXTT4=
EXTT5=
EXTT6=
EXTT7=
EXTT8=
EXTT9=
EXTT10=
EXTT11=
EXTT12=
EXTT13=
EXTT14=
PLAYORDER=
